<svg xmlns="http://www.w3.org/2000/svg" xmlns:xlink="http://www.w3.org/1999/xlink" width="500" zoomAndPan="magnify" viewBox="0 0 375 374.999991" height="500" preserveAspectRatio="xMidYMid meet" version="1.0"><defs><filter x="0%" y="0%" width="100%" height="100%" id="6bd3327d82"><feColorMatrix values="0 0 0 0 1 0 0 0 0 1 0 0 0 0 1 0 0 0 1 0" color-interpolation-filters="sRGB"/></filter><g/><mask id="5d244527f1"><g filter="url(#6bd3327d82)"><rect x="-37.5" width="450" fill="#000000" y="-37.499999" height="449.999989" fill-opacity="0.04"/></g></mask><clipPath id="2f8dbb35e2"><rect x="0" width="229" y="0" height="98"/></clipPath></defs><g mask="url(#5d244527f1)"><g transform="matrix(1, 0, 0, 1, 73, 138)"><g clip-path="url(#2f8dbb35e2)"><g fill="#000000" fill-opacity="1"><g transform="translate(0.920432, 76.499986)"><g><path d="M 6.578125 0 L 6.578125 -50.640625 L 28.1875 -50.640625 C 31.3125 -50.640625 33.953125 -50.148438 36.109375 -49.171875 C 38.265625 -48.191406 39.894531 -46.789062 41 -44.96875 C 42.113281 -43.15625 42.671875 -41.015625 42.671875 -38.546875 C 42.671875 -36.304688 42.128906 -34.332031 41.046875 -32.625 C 39.960938 -30.914062 38.40625 -29.539062 36.375 -28.5 L 36.375 -27.78125 C 39.5625 -26.945312 42.019531 -25.429688 43.75 -23.234375 C 45.476562 -21.046875 46.34375 -18.359375 46.34375 -15.171875 C 46.34375 -10.316406 44.878906 -6.570312 41.953125 -3.9375 C 39.035156 -1.3125 34.703125 0 28.953125 0 Z M 26.109375 -30.453125 C 30.773438 -30.453125 33.109375 -32.550781 33.109375 -36.75 C 33.109375 -38.894531 32.53125 -40.492188 31.375 -41.546875 C 30.226562 -42.597656 28.472656 -43.125 26.109375 -43.125 L 16.59375 -43.125 L 16.59375 -30.453125 Z M 27.953125 -7.9375 C 33.472656 -7.9375 36.234375 -10.441406 36.234375 -15.453125 C 36.234375 -20.484375 33.472656 -23 27.953125 -23 L 16.59375 -23 L 16.59375 -7.9375 Z M 27.953125 -7.9375 "/></g></g></g><g fill="#000000" fill-opacity="1"><g transform="translate(50.449256, 76.499986)"><g><path d="M 22.203125 0.734375 C 18.460938 0.734375 15.175781 -0.03125 12.34375 -1.5625 C 9.519531 -3.101562 7.328125 -5.359375 5.765625 -8.328125 C 4.203125 -11.296875 3.421875 -14.878906 3.421875 -19.078125 C 3.421875 -23.285156 4.203125 -26.878906 5.765625 -29.859375 C 7.328125 -32.835938 9.519531 -35.09375 12.34375 -36.625 C 15.175781 -38.164062 18.460938 -38.9375 22.203125 -38.9375 C 25.941406 -38.9375 29.222656 -38.164062 32.046875 -36.625 C 34.878906 -35.09375 37.082031 -32.835938 38.65625 -29.859375 C 40.226562 -26.878906 41.015625 -23.285156 41.015625 -19.078125 C 41.015625 -14.878906 40.226562 -11.296875 38.65625 -8.328125 C 37.082031 -5.359375 34.878906 -3.101562 32.046875 -1.5625 C 29.222656 -0.03125 25.941406 0.734375 22.203125 0.734375 Z M 22.203125 -7.40625 C 28.140625 -7.40625 31.109375 -11.296875 31.109375 -19.078125 C 31.109375 -23.117188 30.34375 -26.082031 28.8125 -27.96875 C 27.289062 -29.851562 25.085938 -30.796875 22.203125 -30.796875 C 16.265625 -30.796875 13.296875 -26.890625 13.296875 -19.078125 C 13.296875 -11.296875 16.265625 -7.40625 22.203125 -7.40625 Z M 22.203125 -7.40625 "/></g></g></g><g fill="#000000" fill-opacity="1"><g transform="translate(94.852021, 76.499986)"><g><path d="M 22.203125 0.734375 C 18.460938 0.734375 15.175781 -0.03125 12.34375 -1.5625 C 9.519531 -3.101562 7.328125 -5.359375 5.765625 -8.328125 C 4.203125 -11.296875 3.421875 -14.878906 3.421875 -19.078125 C 3.421875 -23.285156 4.203125 -26.878906 5.765625 -29.859375 C 7.328125 -32.835938 9.519531 -35.09375 12.34375 -36.625 C 15.175781 -38.164062 18.460938 -38.9375 22.203125 -38.9375 C 25.941406 -38.9375 29.222656 -38.164062 32.046875 -36.625 C 34.878906 -35.09375 37.082031 -32.835938 38.65625 -29.859375 C 40.226562 -26.878906 41.015625 -23.285156 41.015625 -19.078125 C 41.015625 -14.878906 40.226562 -11.296875 38.65625 -8.328125 C 37.082031 -5.359375 34.878906 -3.101562 32.046875 -1.5625 C 29.222656 -0.03125 25.941406 0.734375 22.203125 0.734375 Z M 22.203125 -7.40625 C 28.140625 -7.40625 31.109375 -11.296875 31.109375 -19.078125 C 31.109375 -23.117188 30.34375 -26.082031 28.8125 -27.96875 C 27.289062 -29.851562 25.085938 -30.796875 22.203125 -30.796875 C 16.265625 -30.796875 13.296875 -26.890625 13.296875 -19.078125 C 13.296875 -11.296875 16.265625 -7.40625 22.203125 -7.40625 Z M 22.203125 -7.40625 "/></g></g></g><g fill="#000000" fill-opacity="1"><g transform="translate(139.254786, 76.499986)"><g><path d="M 22.203125 0.734375 C 18.460938 0.734375 15.175781 -0.03125 12.34375 -1.5625 C 9.519531 -3.101562 7.328125 -5.359375 5.765625 -8.328125 C 4.203125 -11.296875 3.421875 -14.878906 3.421875 -19.078125 C 3.421875 -23.285156 4.203125 -26.878906 5.765625 -29.859375 C 7.328125 -32.835938 9.519531 -35.09375 12.34375 -36.625 C 15.175781 -38.164062 18.460938 -38.9375 22.203125 -38.9375 C 25.941406 -38.9375 29.222656 -38.164062 32.046875 -36.625 C 34.878906 -35.09375 37.082031 -32.835938 38.65625 -29.859375 C 40.226562 -26.878906 41.015625 -23.285156 41.015625 -19.078125 C 41.015625 -14.878906 40.226562 -11.296875 38.65625 -8.328125 C 37.082031 -5.359375 34.878906 -3.101562 32.046875 -1.5625 C 29.222656 -0.03125 25.941406 0.734375 22.203125 0.734375 Z M 22.203125 -7.40625 C 28.140625 -7.40625 31.109375 -11.296875 31.109375 -19.078125 C 31.109375 -23.117188 30.34375 -26.082031 28.8125 -27.96875 C 27.289062 -29.851562 25.085938 -30.796875 22.203125 -30.796875 C 16.265625 -30.796875 13.296875 -26.890625 13.296875 -19.078125 C 13.296875 -11.296875 16.265625 -7.40625 22.203125 -7.40625 Z M 22.203125 -7.40625 "/></g></g></g><g fill="#000000" fill-opacity="1"><g transform="translate(183.65755, 76.499986)"><g><path d="M 22.203125 0.734375 C 18.460938 0.734375 15.175781 -0.03125 12.34375 -1.5625 C 9.519531 -3.101562 7.328125 -5.359375 5.765625 -8.328125 C 4.203125 -11.296875 3.421875 -14.878906 3.421875 -19.078125 C 3.421875 -23.285156 4.203125 -26.878906 5.765625 -29.859375 C 7.328125 -32.835938 9.519531 -35.09375 12.34375 -36.625 C 15.175781 -38.164062 18.460938 -38.9375 22.203125 -38.9375 C 25.941406 -38.9375 29.222656 -38.164062 32.046875 -36.625 C 34.878906 -35.09375 37.082031 -32.835938 38.65625 -29.859375 C 40.226562 -26.878906 41.015625 -23.285156 41.015625 -19.078125 C 41.015625 -14.878906 40.226562 -11.296875 38.65625 -8.328125 C 37.082031 -5.359375 34.878906 -3.101562 32.046875 -1.5625 C 29.222656 -0.03125 25.941406 0.734375 22.203125 0.734375 Z M 22.203125 -7.40625 C 28.140625 -7.40625 31.109375 -11.296875 31.109375 -19.078125 C 31.109375 -23.117188 30.34375 -26.082031 28.8125 -27.96875 C 27.289062 -29.851562 25.085938 -30.796875 22.203125 -30.796875 C 16.265625 -30.796875 13.296875 -26.890625 13.296875 -19.078125 C 13.296875 -11.296875 16.265625 -7.40625 22.203125 -7.40625 Z M 22.203125 -7.40625 "/></g></g></g></g></g></g></svg>